<?xml version="1.0" encoding="UTF-8"?>
<svg viewBox="0 0 1400 1400" version="1.1" xmlns="http://www.w3.org/2000/svg" xmlns:xlink="http://www.w3.org/1999/xlink">
<style>
  .b { fill: #7b6f64; }
  .f { fill: #f00; }
  @media (prefers-color-scheme: light) {
    .b { fill: #000; }
  }
  @media (prefers-color-scheme: dark) {
    .b { fill: #eee; }
  }
</style>
<g id="Page-1" stroke="none" stroke-width="1" fill="none" fill-rule="evenodd">
  <path class="b" d="M698,268 C755.4,268 802,314.6 802,372 C802,429.4 755.4,476 698,476 C640.6,476 594,429.4 594,372 C594,314.6 640.6,268 698,268 Z M474,340 C513.8,340 546,372.2 546,412 C546,451.8 513.8,484 474,484 C434.2,484 402,451.8 402,412 C402,372.2 434.2,340 474,340 Z M378,668 C378,597.3 435.3,540 506,540 C518.8,540 531.2,541.9 542.9,545.4 C510,582.2 490,630.8 490,684 L490,700 C490,711.4 492.4,722.2 496.7,732 L410,732 C392.3,732 378,717.7 378,700 L378,668 Z M899.3,732 C903.6,722.2 906,711.4 906,700 L906,684 C906,630.8 886,582.2 853.1,545.4 C864.8,541.9 877.2,540 890,540 C960.7,540 1018,597.3 1018,668 L1018,700 C1018,717.7 1003.7,732 986,732 L899.3,732 Z M850,412 C850,372.2 882.2,340 922,340 C961.8,340 994,372.2 994,412 C994,451.8 961.8,484 922,484 C882.2,484 850,451.8 850,412 Z M538,684 C538,595.6 609.6,524 698,524 C786.4,524 858,595.6 858,684 L858,700 C858,717.7 843.7,732 826,732 L570,732 C552.3,732 538,717.7 538,700 L538,684 Z" fill-rule="nonzero" />
  <path class="b" d="M411.574219,921.757812 C421.470052,921.757812 430.340495,920.423177 438.185547,917.753906 C446.030599,915.084635 452.231771,910.885417 456.789062,905.15625 C461.346354,899.427083 463.625,891.907552 463.625,882.597656 C463.625,874.264323 462.078776,867.542318 458.986328,862.431641 C455.89388,857.320964 451.157552,853.154297 444.777344,849.931641 C438.397135,846.708984 430.226562,843.632812 420.265625,840.703125 C411.932292,838.294271 405.568359,836.145833 401.173828,834.257812 C396.779297,832.369792 393.768229,830.432943 392.140625,828.447266 C390.513021,826.461589 389.699219,824.166667 389.699219,821.5625 C389.699219,817.005208 391.619792,813.636068 395.460938,811.455078 C399.302083,809.274089 404.152344,808.183594 410.011719,808.183594 C415.936198,808.183594 421.014323,809.567057 425.246094,812.333984 C429.477865,815.100911 431.561198,819.283854 431.496094,824.882812 L431.496094,824.882812 L459.621094,824.882812 C459.621094,816.223958 457.375,809.095052 452.882812,803.496094 C448.390625,797.897135 442.384766,793.730469 434.865234,790.996094 C427.345703,788.261719 419.09375,786.894531 410.109375,786.894531 C400.669271,786.894531 392.303385,788.164062 385.011719,790.703125 C377.720052,793.242188 372.007161,797.197266 367.873047,802.568359 C363.738932,807.939453 361.671875,814.889323 361.671875,823.417969 C361.671875,831.360677 363.478516,837.80599 367.091797,842.753906 C370.705078,847.701823 375.815755,851.738281 382.423828,854.863281 C389.031901,857.988281 396.860677,860.852865 405.910156,863.457031 C413.657552,865.605469 419.679688,867.607422 423.976562,869.462891 C428.273438,871.318359 431.268229,873.369141 432.960938,875.615234 C434.653646,877.861328 435.5,880.709635 435.5,884.160156 C435.5,887.740885 434.507161,890.686849 432.521484,892.998047 C430.535807,895.309245 427.785156,897.018229 424.269531,898.125 C420.753906,899.231771 416.684896,899.785156 412.0625,899.785156 C407.244792,899.785156 402.964193,899.166667 399.220703,897.929688 C395.477214,896.692708 392.498698,894.625651 390.285156,891.728516 C388.071615,888.83138 386.89974,884.84375 386.769531,879.765625 L386.769531,879.765625 L358.644531,879.765625 C358.644531,889.726562 360.988281,897.799479 365.675781,903.984375 C370.363281,910.169271 376.694661,914.677734 384.669922,917.509766 C392.645182,920.341797 401.613281,921.757812 411.574219,921.757812 Z M544.582031,921.757812 C558.31901,921.757812 569.940104,918.974609 579.445312,913.408203 C588.950521,907.841797 596.177083,900.029297 601.125,889.970703 C606.072917,879.912109 608.546875,868.046875 608.546875,854.375 C608.546875,840.703125 606.072917,828.805339 601.125,818.681641 C596.177083,808.557943 588.950521,800.712891 579.445312,795.146484 C569.940104,789.580078 558.31901,786.796875 544.582031,786.796875 C530.845052,786.796875 519.207682,789.580078 509.669922,795.146484 C500.132161,800.712891 492.889323,808.557943 487.941406,818.681641 C482.99349,828.805339 480.519531,840.703125 480.519531,854.375 C480.519531,868.046875 482.99349,879.912109 487.941406,889.970703 C492.889323,900.029297 500.132161,907.841797 509.669922,913.408203 C519.207682,918.974609 530.845052,921.757812 544.582031,921.757812 Z M544.582031,898.90625 C535.988281,898.90625 529.070964,896.888021 523.830078,892.851562 C518.589193,888.815104 514.780599,883.411458 512.404297,876.640625 C510.027995,869.869792 508.839844,862.447917 508.839844,854.375 C508.839844,846.171875 510.027995,838.684896 512.404297,831.914062 C514.780599,825.143229 518.589193,819.739583 523.830078,815.703125 C529.070964,811.666667 535.988281,809.648438 544.582031,809.648438 C553.110677,809.648438 559.979167,811.666667 565.1875,815.703125 C570.395833,819.739583 574.204427,825.143229 576.613281,831.914062 C579.022135,838.684896 580.226562,846.171875 580.226562,854.375 C580.226562,862.447917 579.022135,869.869792 576.613281,876.640625 C574.204427,883.411458 570.395833,888.815104 565.1875,892.851562 C559.979167,896.888021 553.110677,898.90625 544.582031,898.90625 Z M692.042969,921.757812 C703.63151,921.757812 713.657552,919.853516 722.121094,916.044922 C730.584635,912.236328 737.257812,906.63737 742.140625,899.248047 C747.023438,891.858724 749.855469,882.792969 750.636719,872.050781 L750.636719,872.050781 L722.511719,872.050781 C721.730469,880.644531 718.719401,887.26888 713.478516,891.923828 C708.23763,896.578776 701.092448,898.90625 692.042969,898.90625 C683.449219,898.90625 676.531901,896.855469 671.291016,892.753906 C666.05013,888.652344 662.241536,883.216146 659.865234,876.445312 C657.488932,869.674479 656.300781,862.317708 656.300781,854.375 C656.300781,846.367188 657.488932,838.994141 659.865234,832.255859 C662.241536,825.517578 666.05013,820.065104 671.291016,815.898438 C676.531901,811.731771 683.449219,809.648438 692.042969,809.648438 C697.38151,809.648438 702.199219,810.527344 706.496094,812.285156 C710.792969,814.042969 714.32487,816.679688 717.091797,820.195312 C719.858724,823.710938 721.60026,828.138021 722.316406,833.476562 L722.316406,833.476562 L750.441406,833.476562 C749.920573,823.320312 746.958333,814.775391 741.554688,807.841797 C736.151042,800.908203 729.119792,795.667318 720.460938,792.119141 C711.802083,788.570964 702.329427,786.796875 692.042969,786.796875 C678.761719,786.796875 667.335938,789.580078 657.765625,795.146484 C648.195312,800.712891 640.838542,808.557943 635.695312,818.681641 C630.552083,828.805339 627.980469,840.703125 627.980469,854.375 C627.980469,868.046875 630.552083,879.912109 635.695312,889.970703 C640.838542,900.029297 648.195312,907.841797 657.765625,913.408203 C667.335938,918.974609 678.761719,921.757812 692.042969,921.757812 Z M802.785156,920 L802.785156,788.554688 L775.34375,788.554688 L775.34375,920 L802.785156,920 Z M847.023438,920 L856.691406,891.09375 L904.152344,891.09375 L913.527344,920 L942.140625,920 L894.777344,788.554688 L865.96875,788.554688 L818.703125,920 L847.023438,920 Z M897.414062,868.339844 L863.234375,868.339844 L880.324219,815.703125 L897.414062,868.339844 Z M1041.06641,920 L1041.06641,895.878906 L985.597656,895.878906 L985.597656,788.554688 L958.15625,788.554688 L958.15625,920 L1041.06641,920 Z" fill-rule="nonzero" />
  <path class="b" d="M405.53833,1083 L405.538,975.302 L441.134033,1035.75879 L460.140381,1035.75879 L494.967,975.129 L494.967041,1083 L525.39917,1083 L525.39917,935.124023 L491.231689,935.124023 L451.636,1003.463 L411.470947,935.124023 L375.985107,935.124023 L375.985107,1083 L405.53833,1083 Z M659.871826,1083 L659.871826,1057.40186 L591.536865,1057.40186 L591.536865,1019.82861 L653.499756,1019.82861 L653.499756,995.109375 L591.536865,995.109375 L591.536865,960.722168 L659.871826,960.722168 L659.871826,935.124023 L560.665283,935.124023 L560.665283,1083 L659.871826,1083 Z M744.686279,1083 C760.360107,1083 773.818359,1080.12524 785.061035,1074.37573 C796.303711,1068.62622 804.927979,1060.22168 810.933838,1049.16211 C816.939697,1038.10254 819.942627,1024.62598 819.942627,1008.73242 C819.942627,993.351562 816.976318,980.167969 811.043701,969.181641 C805.111084,958.195312 796.523438,949.772461 785.280762,943.913086 C774.038086,938.053711 760.506592,935.124023 744.686279,935.124023 L744.686279,935.124023 L689.644775,935.124023 L689.644775,1083 L744.686279,1083 Z M741.390381,1057.29199 L720.516357,1057.29199 L720.516357,960.832031 L741.390381,960.832031 C751.278076,960.832031 759.700928,962.626465 766.658936,966.215332 C773.616943,969.804199 778.945312,975.132568 782.644043,982.200439 C786.342773,989.268311 788.192139,998.039062 788.192139,1008.5127 C788.192139,1019.49902 786.470947,1028.59937 783.028564,1035.81372 C779.586182,1043.02808 774.404297,1048.41138 767.48291,1051.96362 C760.561523,1055.51587 751.864014,1057.29199 741.390381,1057.29199 L741.390381,1057.29199 Z M879.598389,1083 L879.598389,935.124023 L848.726807,935.124023 L848.726807,1083 L879.598389,1083 Z M929.366455,1083 L940.24292,1050.48047 L993.636475,1050.48047 L1004.18335,1083 L1036.37329,1083 L983.0896,935.124023 L950.679932,935.124023 L897.506104,1083 L929.366455,1083 Z M986.055908,1024.88232 L947.60376,1024.88232 L966.829834,965.666016 L986.055908,1024.88232 Z" fill-rule="nonzero" />
  <path class="f" d="M700,100 C1031.37085,100 1300,368.62915 1300,700 C1300,1031.37085 1031.37085,1300 700,1300 C368.62915,1300 100,1031.37085 100,700 C100,368.62915 368.62915,100 700,100 Z M1091.32882,313.526423 L313.526423,1091.32882 C412.858476,1189.4361 549.35651,1250 700,1250 C1003.75661,1250 1250,1003.75661 1250,700 C1250,549.35651 1189.4361,412.858476 1091.32882,313.526423 Z M700,150 C396.243388,150 150,396.243388 150,700 C150,835.11335 198.720263,958.847473 279.551199,1054.59278 L1054.59178,279.550355 C958.846612,198.719923 835.11288,150 700,150 Z" />
  <path class="f" d="M700,75 C1045.17797,75 1325,354.822031 1325,700 C1325,1045.17797 1045.17797,1325 700,1325 C354.822031,1325 75,1045.17797 75,700 C75,354.822031 354.822031,75 700,75 Z M700,90 C363.106303,90 90,363.106303 90,700 C90,1036.8937 363.106303,1310 700,1310 C1036.8937,1310 1310,1036.8937 1310,700 C1310,363.106303 1036.8937,90 700,90 Z" />
</g>
</svg>
