<svg xmlns="http://www.w3.org/2000/svg" viewBox="0 0 1400 1400" xmlns:v="https://vecta.io/nano">
<style>.F{fill:red}.B{fill:#7b6f64}@media(prefers-color-scheme:light){.B{fill:#000}} @media(prefers-color-scheme:dark){.B{fill:#eee}}</style>
<g fill-rule="evenodd">
  <path class="B" d="M698 268c57.4 0 104 46.6 104 104s-46.6 104-104 104-104-46.6-104-104 46.6-104 104-104zm-224 72c39.8 0 72 32.2 72 72s-32.2 72-72 72-72-32.2-72-72 32.2-72 72-72zm-96 328c0-70.7 57.3-128 128-128a128.64 128.64 0 0 1 36.9 5.4C510 582.2 490 630.8 490 684v16c0 11.4 2.4 22.2 6.7 32H410a31.97 31.97 0 0 1-32-32v-32zm521.3 64c4.3-9.8 6.7-20.6 6.7-32v-16c0-53.2-20-101.8-52.9-138.6A128.64 128.64 0 0 1 890 540c70.7 0 128 57.3 128 128v32a31.97 31.97 0 0 1-32 32h-86.7zM850 412c0-39.8 32.2-72 72-72s72 32.2 72 72-32.2 72-72 72-72-32.2-72-72zM538 684c0-88.4 71.6-160 160-160s160 71.6 160 160v16a31.97 31.97 0 0 1-32 32H570a31.97 31.97 0 0 1-32-32v-16zM411.574 921.758c9.896 0 18.766-1.335 26.611-4.004s14.046-6.868 18.604-12.598 6.836-13.249 6.836-22.559c0-8.333-1.546-15.055-4.639-20.166s-7.829-9.277-14.209-12.5-14.551-6.299-24.512-9.229c-8.333-2.409-14.697-4.557-19.092-6.445s-7.406-3.825-9.033-5.811a10.54 10.54 0 0 1-2.441-6.885c0-4.557 1.921-7.926 5.762-10.107s8.691-3.271 14.551-3.271c5.924 0 11.003 1.383 15.234 4.15s6.315 6.95 6.25 12.549h0 28.125c0-8.659-2.246-15.788-6.738-21.387s-10.498-9.766-18.018-12.5-15.771-4.102-24.756-4.102c-9.44 0-17.806 1.27-25.098 3.809s-13.005 6.494-17.139 11.865-6.201 12.321-6.201 20.85c0 7.943 1.807 14.388 5.42 19.336s8.724 8.984 15.332 12.109 14.437 5.99 23.486 8.594c7.747 2.148 13.77 4.15 18.066 6.006s7.292 3.906 8.984 6.152 2.539 5.094 2.539 8.545c0 3.581-.993 6.527-2.979 8.838s-4.736 4.02-8.252 5.127-7.585 1.66-12.207 1.66c-4.818 0-9.098-.618-12.842-1.855s-6.722-3.304-8.936-6.201-3.385-6.885-3.516-11.963h0-28.125c0 9.961 2.344 18.034 7.031 24.219s11.019 10.693 18.994 13.525 16.943 4.248 26.904 4.248zm133.008 0c13.737 0 25.358-2.783 34.863-8.35s16.732-13.379 21.68-23.437 7.422-21.924 7.422-35.596-2.474-25.57-7.422-35.693-12.174-17.969-21.68-23.535-21.126-8.35-34.863-8.35-25.374 2.783-34.912 8.35-16.781 13.411-21.729 23.535-7.422 22.021-7.422 35.693 2.474 25.537 7.422 35.596 12.191 17.871 21.729 23.438 21.175 8.35 34.912 8.35zm0-22.852c-8.594 0-15.511-2.018-20.752-6.055s-9.049-9.44-11.426-16.211-3.564-14.193-3.564-22.266c0-8.203 1.188-15.69 3.564-22.461s6.185-12.174 11.426-16.211 12.158-6.055 20.752-6.055c8.529 0 15.397 2.018 20.605 6.055s9.017 9.44 11.426 16.211 3.613 14.258 3.613 22.461c0 8.073-1.204 15.495-3.613 22.266s-6.217 12.174-11.426 16.211-12.077 6.055-20.605 6.055zm147.461 22.852c11.589 0 21.615-1.904 30.078-5.713s15.137-9.408 20.02-16.797 7.715-16.455 8.496-27.197h0-28.125c-.781 8.594-3.792 15.218-9.033 19.873s-12.386 6.982-21.436 6.982c-8.594 0-15.511-2.051-20.752-6.152s-9.049-9.538-11.426-16.309-3.564-14.128-3.564-22.07c0-8.008 1.188-15.381 3.564-22.119s6.185-12.191 11.426-16.357 12.158-6.25 20.752-6.25c5.339 0 10.156.879 14.453 2.637s7.829 4.395 10.596 7.91 4.508 7.943 5.225 13.281h0 28.125c-.521-10.156-3.483-18.701-8.887-25.635s-12.435-12.174-21.094-15.723-18.132-5.322-28.418-5.322c-13.281 0-24.707 2.783-34.277 8.35s-16.927 13.411-22.07 23.535-7.715 22.021-7.715 35.693 2.572 25.537 7.715 35.596 12.5 17.871 22.07 23.438 20.996 8.35 34.277 8.35zM802.785 920V788.555h-27.441V920h27.441zm44.238 0l9.668-28.906h47.461L913.527 920h28.613l-47.363-131.445h-28.809L818.703 920h28.32zm50.391-51.66h-34.18l17.09-52.637 17.09 52.637zM1041.066 920v-24.121h-55.469V788.555h-27.441V920h82.91zm-635.528 163V975.302l35.596 60.457h19.006l34.827-60.63V1083h30.432V935.124h-34.167l-39.596 68.339-40.165-68.339h-35.486V1083h29.553zm254.333 0v-25.598h-68.335v-37.573H653.5V995.11h-61.963v-34.387h68.335v-25.598h-99.207V1083h99.207zm84.814 0c15.674 0 29.132-2.875 40.375-8.624s19.867-14.154 25.873-25.214 9.009-24.536 9.009-40.43c0-15.381-2.966-28.564-8.899-39.551s-14.52-19.409-25.763-25.269-24.774-8.789-40.594-8.789h0-55.042V1083h55.042zm-3.296-25.708h-20.874v-96.46h20.874c9.888 0 18.311 1.794 25.269 5.383s12.286 8.917 15.985 15.985 5.548 15.839 5.548 26.312c0 10.986-1.721 20.087-5.164 27.301s-8.624 12.598-15.546 16.15-15.619 5.328-26.093 5.328h0zM879.598 1083V935.124h-30.872V1083h30.872zm49.768 0l10.876-32.52h53.394l10.547 32.52h32.19L983.09 935.124h-32.41L897.506 1083h31.86zm56.689-58.118h-38.452l19.226-59.216 19.226 59.216z" fill-rule="nonzero"/>
  <path class="F" d="M700 100c331.371 0 600 268.629 600 600s-268.629 600-600 600-600-268.629-600-600 268.629-600 600-600zm391.329 213.526l-777.802 777.802C412.858 1189.436 549.357 1250 700 1250c303.757 0 550-246.243 550-550 0-150.643-60.564-287.142-158.671-386.474zM700 150c-303.757 0-550 246.243-550 550 0 135.113 48.72 258.847 129.551 354.593l775.041-775.042C958.847 198.72 835.113 150 700 150zm0-75c345.178 0 625 279.822 625 625s-279.822 625-625 625S75 1045.178 75 700 354.822 75 700 75zm0 15C363.106 90 90 363.106 90 700s273.106 610 610 610 610-273.106 610-610S1036.894 90 700 90z"/>
</g>
</svg>
